<svg width="66" height="55" viewBox="0 0 66 55" fill="none" xmlns="http://www.w3.org/2000/svg">
<path fillRule="evenodd" clipRule="evenodd" d="M11.4043 0C12.5555 0 13.6009 0.471039 14.355 1.23015C14.7069 1.5857 14.997 2.00224 15.2058 2.46549H22.0004C22.2093 2.00354 22.4993 1.5857 22.8499 1.23145C23.6053 0.472337 24.6495 0 25.8019 0C26.953 0 27.9984 0.472337 28.7525 1.23015C29.1045 1.5857 29.3945 2.00354 29.6033 2.46549H36.398C36.6068 2.00354 36.8968 1.5857 37.2487 1.23145C38.0041 0.472337 39.0483 0 40.1994 0C41.3518 0 42.396 0.472337 43.1501 1.23015C43.5033 1.5857 43.792 2.00354 44.0009 2.46549H50.7942C51.003 2.00354 51.2931 1.5857 51.6437 1.23145C52.3991 0.472337 53.4445 0 54.597 0C55.7481 0 56.7922 0.472337 57.5463 1.23015C57.8982 1.5857 58.1883 2.00354 58.3971 2.46549H64.2752C65.2279 2.46549 66 3.24277 66 4.20172V47.998C65.9961 48.6585 65.6184 49.2891 64.9829 49.5772C57.05 53.2028 45.0734 55 33.1225 55C21.1819 55 9.17684 53.2028 1.16789 49.6421C0.488555 49.4085 0 48.761 0 47.998V4.20172C0 3.24277 0.772148 2.46549 1.72348 2.46549H7.60289C7.81172 2.00354 8.10176 1.5857 8.45367 1.23145C9.20906 0.472337 10.2532 0 11.4043 0ZM27.903 35.982C28.9446 35.982 29.7889 36.8332 29.7889 37.8804C29.7889 38.9276 28.9446 39.7788 27.903 39.7788C26.8628 39.7788 26.0184 38.9276 26.0184 37.8804C26.0184 36.8332 26.8628 35.982 27.903 35.982ZM27.903 26.6922C28.9446 26.6922 29.7889 27.5409 29.7889 28.5894C29.7889 29.6378 28.9446 30.4878 27.903 30.4878C26.8628 30.4878 26.0184 29.6378 26.0184 28.5894C26.0184 27.5409 26.8628 26.6922 27.903 26.6922ZM27.903 17.4972C28.9446 17.4972 29.7889 18.3485 29.7889 19.3957C29.7889 20.4428 28.9446 21.2941 27.903 21.2941C26.8628 21.2941 26.0184 20.4428 26.0184 19.3957C26.0184 18.3485 26.8628 17.4972 27.903 17.4972ZM47.9879 36.1909C48.9148 36.1909 49.6663 36.9474 49.6663 37.8804C49.6663 38.8134 48.9148 39.5699 47.9879 39.5699H34.1215C33.1947 39.5699 32.4431 38.8134 32.4431 37.8804C32.4431 36.9474 33.1947 36.1909 34.1215 36.1909H47.9879ZM55.449 26.8985C56.3759 26.8985 57.1274 27.6564 57.1274 28.5894C57.1274 29.5224 56.3759 30.2789 55.449 30.2789H34.1215C33.1947 30.2789 32.4431 29.5224 32.4431 28.5894C32.4431 27.6564 33.1947 26.8985 34.1215 26.8985H55.449ZM56.0974 17.7061C57.0243 17.7061 57.7771 18.4627 57.7771 19.3957C57.7771 20.3287 57.0243 21.0852 56.0974 21.0852H34.1215C33.1947 21.0852 32.4431 20.3287 32.4431 19.3957C32.4431 18.4627 33.1947 17.7061 34.1215 17.7061H56.0974ZM13.8845 38.1464C12.7024 38.0621 11.1968 37.7701 10.0379 37.4561V33.2985L11.2058 33.3945C12.714 33.484 14.7611 33.6436 16.2409 33.51C16.5284 33.484 16.8635 33.4347 17.1252 33.3062C17.6228 33.0662 17.6163 31.3598 17.2876 31.1249C17.0981 30.99 16.8829 30.9381 16.6534 30.9381H15.4481C14.5393 30.9381 13.735 30.8356 13.0337 30.6305C12.3196 30.4216 11.7176 30.1076 11.2264 29.6885C10.725 29.2576 10.3499 28.688 10.1024 27.9782C9.86391 27.2878 9.74145 26.4664 9.74145 25.514V23.9296C9.74145 23.0472 9.87551 22.2712 10.1423 21.6016C10.5858 20.4922 11.5062 19.6033 12.5748 19.0985C12.9486 18.922 13.3676 18.7884 13.8845 18.7014V16.8575H17.6924V18.6288C18.3227 18.6781 18.8113 18.7663 19.4288 18.8792C20.1352 19.0025 20.8196 19.1426 21.517 19.3126V23.4767L21.1496 23.4443C19.5862 23.3078 18.0177 23.2394 16.4484 23.2392C15.9921 23.2392 15.122 23.2509 14.7778 23.5974C14.4955 23.8803 14.5368 25.5737 14.841 25.8241C15.0704 26.011 15.461 26.0434 15.742 26.0434H17.2438C18.2106 26.0434 19.2109 26.2095 20.0591 26.6961C20.8235 27.1334 21.3997 27.7303 21.7852 28.483C21.9746 28.8541 22.119 29.2524 22.2144 29.6781C22.4232 30.6059 22.3588 31.6427 22.3588 32.5951C22.3588 33.34 22.2918 34.0044 22.1616 34.5844C22.0275 35.1774 21.8225 35.6835 21.5505 36.1C20.6998 37.399 19.1735 37.9634 17.6924 38.1269V40.124H13.8845V38.1464ZM15.2058 5.93665C14.9978 6.39593 14.7097 6.8139 14.355 7.1707C13.5996 7.93111 12.5555 8.40344 11.4043 8.40344C10.2532 8.40344 9.20777 7.93111 8.45367 7.1707C8.09845 6.81438 7.81021 6.3963 7.60289 5.93665H3.44824V46.8587C10.9918 49.9639 22.0455 51.5288 33.1225 51.5288C44.1259 51.5288 55.0778 49.9821 62.5518 46.8626V5.93665H58.3971C58.1891 6.39593 57.901 6.8139 57.5463 7.1707C56.7909 7.93111 55.7455 8.40344 54.597 8.40344C53.4445 8.40344 52.4004 7.93111 51.6463 7.17199C51.2909 6.81502 51.0023 6.39657 50.7942 5.93665H44.0009C43.7937 6.39677 43.5055 6.81531 43.1501 7.17199C42.3947 7.93111 41.3505 8.40344 40.1994 8.40344C39.0483 8.40344 38.0029 7.93111 37.2487 7.1707C36.8935 6.81438 36.6053 6.3963 36.398 5.93665H29.6033C29.3957 6.39651 29.1075 6.81497 28.7525 7.17199C27.9971 7.93111 26.953 8.40344 25.8019 8.40344C24.6495 8.40344 23.6053 7.93111 22.8499 7.1707C22.4955 6.81398 22.2078 6.39597 22.0004 5.93665H15.2058Z" fill="#01A0C4"/>
</svg>
