<svg width="51" height="52" viewBox="0 0 51 52" fill="none" xmlns="http://www.w3.org/2000/svg">
<path d="M30.8424 48.7684C30.1107 49.8672 29.141 50.7018 28.0553 51.2476C26.118 52.2326 23.8081 52.2753 21.8871 51.2283C21.2366 50.8665 20.6363 50.3816 20.115 49.7656L30.8424 48.7684ZM30.8229 17.9737C31.1656 17.9666 31.5145 18.0235 31.8531 18.1373C32.4935 18.3518 33.1112 18.7716 33.5863 19.3297C34.0645 19.8898 34.4062 20.5952 34.4924 21.3789C34.5324 21.7459 34.517 22.1291 34.4329 22.5205C34.792 22.8356 35.0896 23.1924 35.3144 23.5725C35.655 24.1489 35.8326 24.7883 35.8131 25.4378C35.7946 26.0914 35.576 26.746 35.1276 27.3488C34.8403 27.7341 34.4585 28.097 33.9762 28.4222C34.0255 29.4326 33.7259 30.3404 33.2384 31.0397C32.6915 31.8244 31.8973 32.3561 31.0763 32.4994C30.9009 33.212 30.4268 33.8412 29.8131 34.2772C29.0487 34.8201 28.0492 35.0742 27.139 34.8272C26.4597 34.6422 25.8409 34.1939 25.4202 33.399C24.9081 34.2711 24.1991 34.7316 23.4572 34.8841C22.5757 35.065 21.6634 34.7977 20.977 34.2691C20.4187 33.8381 20.0011 33.2262 19.8595 32.535C19.5691 32.5248 19.2756 32.4689 18.9893 32.3723C18.3654 32.164 17.762 31.7574 17.29 31.2176C16.818 30.6778 16.4721 29.9978 16.3654 29.2405C16.309 28.84 16.3182 28.4202 16.4106 27.9902C16.0935 27.7097 15.8226 27.3915 15.6102 27.0489C15.252 26.4736 15.054 25.8231 15.0622 25.1511C15.0694 24.4772 15.2859 23.7931 15.7559 23.1598C16.0329 22.7847 16.4013 22.428 16.8682 22.1006C16.8611 21.9685 16.8611 21.8384 16.8652 21.7103C16.9021 20.7253 17.2695 19.8583 17.8031 19.2118C18.3541 18.5429 19.096 18.1018 19.8584 17.9971H19.8626C19.8903 17.8741 19.9262 17.7521 19.9703 17.6332C20.2166 16.9714 20.7245 16.4062 21.3474 16.0474C21.9723 15.6866 22.7245 15.528 23.4572 15.6784C24.1632 15.8238 24.8394 16.2477 25.3453 17.0415C25.8512 16.2477 26.5274 15.8238 27.2334 15.6784C27.8994 15.5412 28.5828 15.6601 29.1718 15.9539C29.7526 16.2446 30.2493 16.7102 30.554 17.2703C30.6751 17.4929 30.7664 17.7287 30.8229 17.9737ZM26.1005 18.3965V31.4839C26.1611 31.5632 26.2031 31.6577 26.2206 31.7624C26.4104 32.904 26.9112 33.4549 27.4745 33.6084C27.9938 33.7487 28.592 33.584 29.0682 33.2455C29.5351 32.9141 29.8696 32.4262 29.8737 31.9149C29.8788 31.3335 29.4489 30.6738 28.2975 30.0913C28.1472 30.0149 28.0335 29.8825 27.9816 29.7232C27.9297 29.5639 27.9436 29.3906 28.0205 29.2415C28.0585 29.1676 28.1108 29.1018 28.1746 29.048C28.2383 28.9941 28.3121 28.9532 28.3917 28.9276C28.4714 28.902 28.5554 28.8923 28.6389 28.8989C28.7224 28.9055 28.8037 28.9283 28.8783 28.9661C30.1549 29.6125 30.8167 30.4074 31.0497 31.2064C31.4714 31.0763 31.8808 30.7622 32.1877 30.321C32.5663 29.7772 32.7828 29.0464 32.6792 28.2271C32.6217 27.9658 32.7367 27.6863 32.9829 27.544C33.4806 27.2563 33.85 26.9331 34.1014 26.5956C34.3877 26.2114 34.5263 25.8027 34.5386 25.4032C34.5499 24.9997 34.4329 24.5911 34.2092 24.2119C34.005 23.8663 33.7136 23.5461 33.3523 23.2778C33.2355 23.2002 33.1477 23.0867 33.1025 22.9548C33.0572 22.8229 33.057 22.6799 33.102 22.5479C33.2251 22.1891 33.2579 21.8394 33.222 21.5131C33.1646 20.9977 32.9347 20.5261 32.6104 20.1469C32.2851 19.7658 31.8696 19.4801 31.4427 19.3368C31.219 19.2616 30.9953 19.228 30.788 19.2423C30.6782 19.6173 30.476 19.9955 30.1641 20.3635C29.9373 20.6298 29.5351 20.6643 29.2662 20.4397C29.1371 20.332 29.0564 20.178 29.0417 20.0115C29.0271 19.8449 29.0798 19.6794 29.1882 19.5513C29.6859 18.9668 29.689 18.3518 29.4283 17.87C29.2477 17.5396 28.9481 17.2601 28.5961 17.0842C28.2513 16.9125 27.8624 16.8413 27.494 16.9165C26.9533 17.0283 26.431 17.4715 26.1005 18.3965ZM29.3596 22.6872C29.2231 22.5884 29.1317 22.4401 29.1054 22.2748C29.079 22.1094 29.1199 21.9404 29.219 21.8048C29.3187 21.6697 29.4684 21.5791 29.6353 21.553C29.8023 21.5269 29.9728 21.5674 30.1097 21.6656C30.2421 21.7611 30.3642 21.8597 30.476 21.9594C31.3277 22.7177 31.7926 23.7199 31.8767 24.7578C31.9619 25.7834 31.6725 26.8456 31.0189 27.7351C30.9296 27.8581 30.8249 27.9851 30.7049 28.1163C30.4699 28.3745 30.0656 28.3948 29.8049 28.16C29.7428 28.1044 29.6924 28.0373 29.6565 27.9624C29.6206 27.8875 29.5999 27.8063 29.5957 27.7235C29.5915 27.6407 29.6039 27.5579 29.632 27.4798C29.6602 27.4018 29.7036 27.3299 29.7598 27.2685C29.8326 27.1872 29.9086 27.0947 29.9835 26.992C30.4535 26.3516 30.6618 25.5903 30.6023 24.8564C30.5427 24.1326 30.2174 23.4323 29.6233 22.9006C29.5392 22.8234 29.4499 22.7522 29.3596 22.6872ZM24.8189 19.0573L24.8148 19.0522L24.8107 19.0461L24.7994 19.0278L24.7983 19.0257L24.7727 18.978L24.7696 18.9729L24.7686 18.9719L24.7665 18.9658L24.7573 18.9444L24.7542 18.9393L24.7511 18.9332V18.9312L24.7491 18.9261L24.7409 18.9058L24.7399 18.9028L24.7388 18.8987L24.7357 18.8875L24.7347 18.8845L24.7327 18.8784L24.7316 18.8733L24.7306 18.8702L24.7286 18.8641L24.7275 18.858L24.7265 18.857L24.7245 18.8489L24.7234 18.8438C24.4156 17.6108 23.8173 17.0456 23.1965 16.9175C22.7891 16.8332 22.3561 16.9297 21.9877 17.1422C21.6142 17.3577 21.3135 17.688 21.1719 18.0692C20.9821 18.5785 21.0939 19.2047 21.7353 19.7922C21.9928 20.029 22.0082 20.4295 21.7702 20.6847C21.5311 20.9408 21.1268 20.9561 20.8692 20.7192C20.3633 20.2557 20.0565 19.7627 19.9098 19.2728C19.5085 19.3642 19.1104 19.6275 18.7923 20.0128C18.4208 20.459 18.1663 21.0638 18.1407 21.755C18.1335 21.938 18.1437 22.1311 18.1715 22.3314C18.2043 22.5713 18.0955 22.8203 17.8749 22.9555C17.3936 23.2493 17.0355 23.5725 16.7861 23.909C16.4824 24.3197 16.3428 24.7496 16.3377 25.1664C16.3326 25.5852 16.4639 26.004 16.6999 26.3852C16.899 26.7054 17.172 26.9961 17.4993 27.237C17.6137 27.3154 17.6992 27.4285 17.7429 27.5592C17.7865 27.69 17.7861 27.8313 17.7415 27.9618C17.6101 28.346 17.5824 28.7201 17.6317 29.0677C17.7025 29.5678 17.9354 30.0242 18.2556 30.3902C18.5768 30.7581 18.9831 31.0336 19.3998 31.1729C19.5763 31.2328 19.7517 31.2664 19.921 31.2715C20.1714 30.4512 20.8589 29.6298 22.1693 28.9661C22.4833 28.8075 22.8682 28.9305 23.0282 29.2415C23.1883 29.5516 23.0641 29.9327 22.7501 30.0913C21.5383 30.7043 21.0826 31.4117 21.0837 32.0277C21.0837 32.5065 21.3597 32.9578 21.763 33.2679C22.1724 33.584 22.7019 33.7466 23.1965 33.645C23.8184 33.5169 24.4176 32.9497 24.7245 31.7126C24.744 31.6364 24.7758 31.5663 24.8189 31.5053V19.0573ZM20.0729 22.0905C20.1936 21.9728 20.3566 21.9075 20.5259 21.9088C20.6953 21.9101 20.8571 21.978 20.9759 22.0976C21.2232 22.3466 21.2191 22.7471 20.9687 22.9921C20.4044 23.541 20.1099 24.2516 20.0791 24.9783C20.0473 25.7255 20.2935 26.4939 20.8087 27.1272C21.0293 27.3986 20.9862 27.7971 20.7112 28.0167C20.5791 28.1215 20.4104 28.1702 20.2421 28.1521C20.0738 28.134 19.9196 28.0506 19.8133 27.9201C19.1001 27.0429 18.7594 25.9735 18.8036 24.9275C18.8467 23.8897 19.2674 22.8742 20.0729 22.0905ZM15.0838 36.3794C14.5081 35.6505 13.9211 34.9065 13.3537 34.0526C12.777 33.1825 12.2341 32.2188 11.7724 31.0865C11.3198 29.9663 10.9812 28.8359 10.776 27.6944C10.5707 26.5478 10.4958 25.3829 10.5707 24.1997V24.1967C10.6467 23.0216 10.8704 21.8313 11.2583 20.6288C11.6431 19.4313 12.1859 18.2319 12.9001 17.0344L12.9586 16.946C13.8719 15.589 14.9391 14.4627 16.1109 13.555C17.3228 12.6156 18.6844 11.8832 20.1396 11.3878L20.2176 11.3654C21.3382 10.9873 22.4874 10.7525 23.6367 10.6529C24.8527 10.5472 26.0821 10.5888 27.2929 10.7657C28.4781 10.9385 29.6428 11.2424 30.7552 11.6643C31.8644 12.0851 32.9306 12.63 33.9229 13.2856C35.2087 14.1364 36.3662 15.1783 37.3297 16.3869C38.2502 17.5427 38.9921 18.8509 39.4939 20.2893H39.498C39.7689 21.0699 39.9895 21.9024 40.1362 22.7827C40.2878 23.6843 40.3518 24.5983 40.3271 25.512C40.3014 26.4929 40.1701 27.5064 39.9146 28.5422C39.6745 29.5089 39.3235 30.501 38.8443 31.5103C37.8633 33.583 36.1845 35.6414 34.5396 37.6571C33.6858 38.7051 32.8393 39.7429 32.122 40.7472C31.8849 41.0817 31.4704 41.2199 31.0917 41.1254C28.8352 40.9536 21.3351 42.0229 18.5614 42.2781C18.3353 42.2984 18.1092 42.2394 17.9226 42.1114C17.736 41.9834 17.6007 41.7945 17.5404 41.5777C17.2602 40.5744 16.8898 39.5701 16.4537 38.6512C16.0473 37.7943 15.5835 37.0126 15.0838 36.3794ZM14.9719 32.9985C15.4911 33.7792 16.0555 34.4958 16.6107 35.1982C17.2007 35.9453 17.7415 36.8541 18.2084 37.838C18.5799 38.6207 18.9062 39.4532 19.1771 40.2939L30.8413 39.2194C31.5135 38.3097 32.2667 37.3857 33.0281 36.4536C34.6053 34.5202 36.2143 32.5472 37.0896 30.6982C37.5113 29.8097 37.8202 28.9376 38.0295 28.0898C38.2543 27.1862 38.3671 26.31 38.3897 25.4673C38.4113 24.646 38.3497 23.8531 38.2225 23.0907C38.0962 22.3405 37.9023 21.6127 37.6591 20.9134L37.6632 20.9124C37.2343 19.6844 36.5991 18.5653 35.81 17.5752C34.9778 16.5313 33.9691 15.6266 32.8444 14.8805C31.9855 14.3133 31.0497 13.8365 30.0635 13.4625C29.0805 13.0894 28.0533 12.8211 27.0118 12.6696C25.9528 12.5151 24.8743 12.4795 23.804 12.572C22.7922 12.6594 21.7979 12.8597 20.8466 13.1799L20.7707 13.2083C19.5424 13.6271 18.3705 14.2421 17.3033 15.0685C16.2987 15.8462 15.3793 16.8169 14.5851 17.9899L14.5717 18.0133C13.9252 19.0969 13.4399 20.1622 13.1043 21.2082C12.7688 22.2491 12.5748 23.2859 12.5081 24.3166C12.4435 25.3392 12.5102 26.3547 12.6908 27.363C12.8734 28.3775 13.172 29.3808 13.5733 30.3719C13.9837 31.3792 14.464 32.2321 14.9719 32.9985ZM31.0969 41.1233C31.0999 41.1233 31.1051 41.1223 31.0969 41.1233V41.1233ZM26.4227 1.56947C26.4617 1.09782 26.6865 0.689184 27.022 0.406598C27.3494 0.129095 27.7875 -0.0254124 28.2513 0.00406598V0C28.2914 0.00203299 28.3304 0.00813197 28.3693 0.0152474C28.8003 0.0731877 29.179 0.289701 29.4427 0.59465C29.7239 0.918912 29.8788 1.34889 29.8491 1.81241H29.8542C29.8521 1.84291 29.8501 1.8734 29.845 1.89881L29.5515 5.5216H29.5556C29.5546 5.56023 29.5474 5.59886 29.5412 5.6385C29.4817 6.0695 29.2642 6.44052 28.9553 6.70176C28.6137 6.9888 28.1729 7.13314 27.726 7.10429V7.10835C27.687 7.10632 27.648 7.10022 27.609 7.09412C27.1729 7.03517 26.7983 6.81967 26.5346 6.5137C26.2448 6.17536 26.0991 5.73871 26.1282 5.29594H26.1241C26.1262 5.26545 26.1272 5.23495 26.1334 5.20954L26.4227 1.56947ZM7.18341 6.89692C6.86848 6.57097 6.69561 6.13539 6.70215 5.68424C6.70574 5.46108 6.75372 5.24081 6.84334 5.03604C6.93297 4.83127 7.06248 4.64601 7.22446 4.49088C7.55325 4.1785 7.99315 4.00719 8.44866 4.01414C8.88683 4.02024 9.32499 4.19609 9.65336 4.53154L12.2608 7.2161C12.5882 7.55561 12.7482 7.99474 12.7421 8.42878C12.7349 8.86791 12.5574 9.29687 12.2198 9.62215C11.8904 9.9343 11.4503 10.1055 10.9945 10.0989C10.5523 10.0918 10.1182 9.91591 9.79087 9.58047L7.18341 6.89692ZM1.65451 25.3565C1.19069 25.3402 0.77612 25.139 0.47751 24.832C0.162671 24.5042 -0.00881207 24.0666 0.000349056 23.6142C0.00855827 23.1456 0.212763 22.7217 0.531896 22.4219C0.851029 22.122 1.28201 21.9411 1.7602 21.9543L5.51592 22.0325C5.99 22.0407 6.41688 22.2419 6.71959 22.5581C7.02333 22.8752 7.20496 23.3021 7.19265 23.7748L7.1906 23.8012H7.1947L7.18752 23.8622C7.15468 24.2993 6.95766 24.6836 6.6611 24.9682C6.34197 25.267 5.91099 25.4439 5.4328 25.4358L5.40714 25.4337L5.40612 25.4388L5.36713 25.4368L1.65451 25.3565ZM49.2146 22.6597L49.271 22.6587C49.7195 22.6567 50.1269 22.8224 50.4357 23.0999C50.762 23.3916 50.9714 23.8114 50.9981 24.278L50.997 24.2953C51.0022 24.2953 50.9991 24.343 50.9991 24.3512C51.0001 24.7954 50.8328 25.1989 50.5527 25.5059C50.2582 25.8281 49.8344 26.0355 49.3634 26.0619L45.6108 26.249C45.1357 26.2713 44.6975 26.0995 44.3753 25.8088C44.049 25.5171 43.8355 25.0973 43.8129 24.6307C43.7919 24.1804 43.9521 23.7403 44.2583 23.4068C44.5528 23.0846 44.9766 22.8722 45.4476 22.8508C46.7016 22.7837 47.9606 22.7085 49.2146 22.6597ZM42.6442 7.46718C42.9325 7.09209 43.3399 6.87049 43.7729 6.80645C44.207 6.74851 44.6616 6.85118 45.0453 7.13275L45.0495 7.13682C45.23 7.27023 45.3819 7.43788 45.4965 7.63002C45.611 7.82215 45.6858 8.03494 45.7165 8.25598C45.776 8.68494 45.6713 9.13525 45.3871 9.51542L43.1295 12.4927C42.8453 12.8678 42.4338 13.0935 41.9956 13.1565C41.5626 13.2155 41.108 13.1128 40.7232 12.8312C40.3445 12.5497 40.1167 12.137 40.0531 11.708C39.9936 11.279 40.0972 10.8277 40.3815 10.4475L42.6442 7.46718ZM32.1825 42.9266L32.1558 43.6168L32.1589 43.8567C32.1723 44.309 32.1528 44.7654 32.1004 45.2147L31.8367 46.1977L18.8385 47.3972L18.6425 46.8747L18.2505 44.8051L18.273 44.2135L32.1825 42.9266Z" fill="#01A0C4"/>
</svg>
