<svg width="74" height="57" viewBox="0 0 74 57" fill="none" xmlns="http://www.w3.org/2000/svg">
    <path fillRule="evenodd" clipRule="evenodd"
          d="M0 24.8399H14.953V51.5023H0V24.8399ZM21.6797 7.09717L42.7632 0.0604302C43.0161 -0.024059 43.2811 -0.0180241 43.5099 0.0664651V0.0604302L64.8704 7.39288C65.3944 7.57393 65.7135 8.08086 65.6654 8.61194C65.6714 8.63608 65.6714 8.66625 65.6714 8.69643V31.0498L66.6108 30.5852C72.3921 28.6781 76.5052 34.7372 72.2415 38.9556C63.8708 45.0569 55.2892 50.078 46.5089 54.1335C40.1315 58.02 33.7541 57.8872 27.3826 54.1335L17.9701 49.2633V26.9823H20.668V8.26795C20.6619 7.67049 21.1016 7.17562 21.6797 7.09717ZM27.9668 26.9823C32.2064 27.7427 36.446 30.048 40.6855 32.7215H41.5708V20.4465L23.4683 12.7036V26.9823H27.9668ZM44.8228 32.7215H48.4601C51.977 32.9327 53.8198 36.5054 50.3993 38.853C48.7913 40.0359 46.8823 40.4825 44.8228 40.579V43.5301C48.6769 43.3128 51.8506 42.2447 53.8921 39.0461L55.0544 36.3244L62.8651 32.4439V12.5407L44.8228 20.4585V32.7215ZM41.5768 40.5066C41.1854 40.4764 40.7879 40.4462 40.3965 40.41C37.8551 40.2833 37.7467 43.7051 40.3965 43.7172C40.7819 43.7474 41.1794 43.7293 41.5768 43.693V42.7878V40.5066ZM43.1185 3.31326L25.1605 9.31199L43.2028 17.5135L61.2511 9.54132L43.1185 3.31326Z"
          fill="#01A0C4"/>
</svg>
