<svg width="84" height="69" viewBox="0 0 84 69" fill="none" xmlns="http://www.w3.org/2000/svg">
    <path fillRule="evenodd" clipRule="evenodd"
          d="M59.2266 30.7099C61.4346 30.7099 63.3965 31.7743 64.6201 33.4117C65.8438 31.7674 67.8057 30.7099 70.0137 30.7099C73.7256 30.7099 76.7334 33.712 76.7334 37.4168C76.7334 41.1216 73.7256 44.1237 70.0137 44.1237C67.8057 44.1237 65.8438 43.0593 64.6201 41.4218C63.3965 43.0662 61.4346 44.1237 59.2266 44.1237C55.5146 44.1237 52.5068 41.1216 52.5068 37.4168C52.5068 33.712 55.5146 30.7099 59.2266 30.7099ZM26.7832 25.197C34.2275 29.9048 40.9541 32.1359 46.7236 31.6105C47.0928 39.0748 46.3135 45.4201 44.5225 50.701H79.3857C79.9189 50.701 80.4043 50.4826 80.7598 50.1279C81.1152 49.7731 81.334 49.2886 81.334 48.7565V23.191H2.67285V48.7565C2.67285 49.2886 2.8916 49.7731 3.24707 50.1279C3.60254 50.4826 4.08789 50.701 4.62109 50.701H9.33105C7.56738 45.4201 6.71973 38.9997 6.91797 31.2966C13.6924 31.6583 20.3438 30.1913 26.7832 25.197ZM43.4971 53.3687C40.1748 61.0172 34.46 66.1412 26.8584 69C19.3936 66.2777 13.6992 61.2697 10.3359 53.3687H4.62109C3.34961 53.3687 2.19434 52.8502 1.36035 52.0178C0.519531 51.1854 0 50.0323 0 48.7633V4.61228C0 3.34322 0.519531 2.19015 1.35352 1.35093C2.19434 0.518541 3.34961 0 4.62109 0H79.3857C80.6572 0 81.8125 0.518541 82.6465 1.35093C83.4805 2.18333 84 3.34322 84 4.60546V48.7496C84 50.0187 83.4805 51.1718 82.6465 52.0042C81.8125 52.8365 80.6572 53.3619 79.3857 53.3619H43.4971V53.3687ZM26.7969 29.2771C32.9834 33.1934 38.5752 35.0424 43.3672 34.6058C43.6953 41.183 42.9434 46.655 41.2549 51.1376L41.207 51.2605C41.1523 51.3969 41.1045 51.5334 41.0498 51.663L40.9883 51.8131C40.9404 51.9359 40.8857 52.0587 40.8379 52.1816L40.7764 52.3248C40.7217 52.4476 40.667 52.5705 40.6123 52.6933L40.5371 52.8638C40.4893 52.9662 40.4414 53.0685 40.3936 53.1709L40.291 53.3756C37.4814 59.1614 32.8809 63.0368 26.8516 65.302C20.918 63.1391 16.3311 59.3592 13.4941 53.3756L13.4736 53.3346L13.4668 53.2869L13.4463 53.2459C13.3984 53.1368 13.3506 53.0344 13.3027 52.9252L13.2822 52.8843L13.2617 52.8434L13.2412 52.8024L13.2207 52.7615L13.2002 52.7206C13.1523 52.6114 13.1045 52.5022 13.0566 52.3931L13.0361 52.3521L13.0156 52.3112L12.9951 52.2702C12.9268 52.1065 12.8584 51.9359 12.79 51.7722L12.7764 51.7312L12.7627 51.6903C12.7148 51.5607 12.6602 51.4379 12.6123 51.3082L12.5986 51.2673L12.585 51.2263L12.5713 51.1854L12.5576 51.1445C12.5098 51.0148 12.4619 50.8852 12.4141 50.7556L12.4004 50.7146C10.8555 46.3207 10.1035 40.9238 10.2744 34.3533C15.9209 34.6399 21.4443 33.4254 26.7969 29.2771ZM2.67285 9.93414H81.3271V4.61228C81.3271 4.0801 81.1084 3.59567 80.7529 3.24088C80.3975 2.88609 79.9121 2.66775 79.3789 2.66775H4.62109C4.08789 2.66775 3.60254 2.88609 3.24707 3.24088C2.8916 3.59567 2.67285 4.0801 2.67285 4.61228V9.93414Z"
          fill="#01A0C4"/>
</svg>
