<svg width="41" height="41" viewBox="0 0 41 41" fill="none" xmlns="http://www.w3.org/2000/svg">
    <path fillRule="evenodd" clipRule="evenodd"
          d="M16.3542 17.4377L19.207 20.156L24.1217 15.1601C24.6088 14.6659 24.9125 14.2685 25.5131 14.8863L27.4583 16.88C28.0989 17.5111 28.0655 17.8818 27.4616 18.4696L20.318 25.4892C19.0468 26.7349 19.2704 26.8117 17.9791 25.5327L13.0811 20.6536C12.8141 20.3631 12.8408 20.0692 13.1345 19.7787L15.3933 17.4343C15.7303 17.077 16.0039 17.1004 16.3542 17.4377ZM30.8482 2.99758C30.3978 2.68367 29.8873 2.54675 29.3668 2.65027C28.8463 2.7538 28.4058 3.03432 28.0922 3.4718L26.3338 5.95306C25.7099 5.67588 25.0593 5.46549 24.3653 5.29183C23.6713 5.11818 23.0206 4.97792 22.3266 4.87439L21.7694 1.62838C21.666 1.07068 21.3857 0.666599 20.982 0.352685C20.5316 0.0387699 20.0545 -0.0647552 19.5006 0.0387699L15.4367 0.770124C14.9162 0.87365 14.5091 1.11743 14.1621 1.56827C13.8485 2.0191 13.7117 2.49666 13.8151 3.05102L14.3356 6.01651C13.675 6.29369 13.0611 6.6076 12.4705 6.97829C11.8799 7.3256 11.3027 7.74304 10.7789 8.14712L8.02287 6.24694C7.57243 5.93302 7.09531 5.7961 6.57481 5.89962C6.0543 6.00315 5.61388 6.28367 5.30024 6.7345L2.95465 10.0907C2.64102 10.5416 2.50422 11.0525 2.60765 11.5735C2.71108 12.1312 2.99135 12.5352 3.44179 12.8492L5.92084 14.6091C5.64391 15.2336 5.43371 15.8848 5.26021 16.5794C5.08671 17.274 4.94657 17.9252 4.84314 18.6199L1.60001 19.1776C-1.1493 19.6952 0.405529 23.6391 0.742521 25.516C0.845954 26.0369 1.08952 26.4443 1.52995 26.7917C1.98038 27.1056 2.45751 27.2425 3.01137 27.139L5.97423 26.618C6.25116 27.2792 6.5648 27.8937 6.93515 28.4848C7.28215 29.0759 7.69922 29.6536 8.10295 30.2113L6.20445 32.9364C5.89081 33.3872 5.75401 33.8648 5.85745 34.3857C5.96088 34.9067 6.23781 35.3475 6.67824 35.6614L10.0582 38.0358C10.5086 38.3497 11.0191 38.4533 11.5396 38.3497C12.0601 38.2462 12.5005 38.0024 12.8475 37.5616L14.6092 35.0469C15.2331 35.3241 15.8838 35.5345 16.5778 35.7082C17.2718 35.8818 17.9191 36.0221 18.6164 36.1256L19.1736 39.3716C19.277 39.9293 19.5573 40.3334 19.961 40.6473C20.4115 40.9612 20.8886 41.0648 21.4425 40.9612L25.5064 40.2299C26.0269 40.1264 26.4339 39.8826 26.7809 39.4417C27.0946 38.9909 27.2314 38.5134 27.1279 37.959L26.6074 34.9935C27.2681 34.7163 27.882 34.4024 28.4726 34.0317C29.0631 33.6844 29.6437 33.277 30.1976 32.8629L32.9202 34.7631C33.3706 35.077 33.8477 35.2139 34.4016 35.1104C34.9588 35.0069 35.3625 34.7263 35.6762 34.2889L38.0485 30.9026C38.3621 30.4518 38.4655 29.9408 38.3621 29.4199C38.2587 28.8989 38.0151 28.4581 37.5647 28.1108L35.0522 26.3842C35.3292 25.7597 35.5394 25.1085 35.7129 24.4139C35.8864 23.7193 36.0265 23.0681 36.1299 22.3735L39.3731 21.8158C39.9303 21.7122 40.334 21.4317 40.6476 21.0176C40.9613 20.5668 41.0647 20.0892 40.9613 19.5349L40.2306 15.4673C40.1271 14.9464 39.8836 14.539 39.4431 14.1917C38.9927 13.8777 38.5156 13.7408 37.9617 13.8443L34.9989 14.3653C34.7219 13.7408 34.4083 13.1263 34.0379 12.4985C33.6909 11.874 33.2739 11.3297 32.8701 10.8054L34.7686 8.04694C35.0823 7.5961 35.2191 7.11855 35.1156 6.59758C35.0122 6.07662 34.7319 5.6358 34.2948 5.32189L30.9416 2.96085L30.8482 2.99758ZM18.4896 9.61317C19.9544 9.37272 21.4391 9.37272 22.9039 9.71002C24.3219 10.044 25.6131 10.6184 26.7909 11.4165C27.922 12.2314 28.9263 13.2666 29.7405 14.5089C30.5546 15.7378 31.0651 17.1271 31.302 18.5931C31.5422 20.0592 31.5422 21.5453 31.2052 23.0113C30.8715 24.4306 30.2977 25.723 29.5002 26.9019C28.6861 28.034 27.6518 29.0392 26.4072 29.854C25.1794 30.6688 23.7914 31.1798 22.3266 31.4169C20.8619 31.6573 19.3771 31.6573 17.9124 31.32C16.4944 30.9861 15.2031 30.4117 14.0253 29.6135C12.8942 28.7987 11.8899 27.7635 11.0758 26.5212C10.2617 25.2922 9.7512 23.903 9.51431 22.4369C9.27407 20.9709 9.27407 19.4848 9.61106 18.0187C9.94472 16.5994 10.5186 15.307 11.316 14.1282C12.1302 12.9961 13.1645 11.9909 14.409 11.1761C15.6536 10.3779 17.0215 9.85028 18.4896 9.61317Z"
          fill="#01A0C4"/>
</svg>
