<svg width="50" height="43" viewBox="0 0 50 43" fill="none" xmlns="http://www.w3.org/2000/svg">
<path d="M12.3861 7.10277H37.6139L49.1496 0.0827963C49.41 -0.0758473 49.7518 0.0034745 49.9146 0.257304C49.9715 0.344558 50 0.44371 50 0.542863V38.6728C50 38.9743 49.7518 39.2162 49.4426 39.2162C49.3164 39.2162 49.2025 39.1765 49.1089 39.1091L37.618 32.1843H12.382L0.887044 39.1051C0.793457 39.1726 0.679525 39.2122 0.553385 39.2122C0.24821 39.2122 0 38.9703 0 38.6689V0.542863C0 0.44371 0.0284831 0.344558 0.0854492 0.257304C0.24821 -0.000491588 0.590007 -0.0758473 0.850423 0.0827963L12.3861 7.10277ZM12.4023 35.5674L12.8459 39.5057C12.8866 39.5018 12.9313 39.5017 12.9761 39.5136L16.6667 40.3188C16.7114 40.3267 16.748 40.3426 16.7847 40.3664L18.8802 36.9793L12.4023 35.5674ZM12.8052 40.2672L12.4512 41.814C12.3901 42.0757 12.561 42.3375 12.8296 42.397L15.5436 42.9879C15.8122 43.0474 16.0807 42.8809 16.1418 42.6191L16.4958 41.0723L12.8052 40.2672ZM38.8713 35.5674L38.4277 39.5057C38.387 39.5018 38.3423 39.5017 38.2975 39.5136L34.6069 40.3188C34.5622 40.3267 34.5215 40.3426 34.4889 40.3664L32.3934 36.9793L38.8713 35.5674ZM38.4725 40.2672L38.8265 41.814C38.8875 42.0757 38.7166 42.3375 38.4481 42.397L35.7341 42.9879C35.4655 43.0474 35.1969 42.8809 35.1359 42.6191L34.7819 41.0723L38.4725 40.2672ZM18.217 12.687H31.8604C32.0923 12.687 32.2795 12.8695 32.2795 13.0955V22.7014C32.2795 22.9275 32.0923 23.1099 31.8604 23.1099H18.217C17.985 23.1099 17.7979 22.9275 17.7979 22.7014V13.0955C17.7979 12.8695 17.985 12.687 18.217 12.687ZM45.5811 6.4325L41.5365 8.74473C41.276 8.89544 40.9831 8.98666 40.9831 9.28412V24.7479C40.9831 25.0454 41.2801 25.1286 41.5365 25.2873L45.5811 27.7661C45.8374 27.9247 46.1344 27.5242 46.1344 27.2267V6.96793C46.1344 6.67443 45.8415 6.28179 45.5811 6.4325ZM38.3301 7.93962V31.3435L48.8851 37.7011V1.51852L38.3301 7.93962ZM37.2152 31.1016V8.18551H12.7848V31.1016H37.2152ZM4.41895 6.4325L8.46354 8.74473C8.72396 8.89544 9.01693 8.98666 9.01693 9.28412V24.7479C9.01693 25.0454 8.71989 25.1286 8.46354 25.2873L4.41895 27.7661C4.1626 27.9247 3.86556 27.5242 3.86556 27.2267V6.96793C3.86556 6.67443 4.15853 6.28179 4.41895 6.4325ZM16.4632 10.466H33.6141C33.9152 10.466 34.1919 10.589 34.3953 10.7833L34.3994 10.7873C34.5988 10.9816 34.7249 11.2513 34.7249 11.5488V24.3791C34.7249 24.6725 34.5988 24.9422 34.3994 25.1405L34.3953 25.1445C34.196 25.3388 33.9193 25.4618 33.6141 25.4618H16.4632C16.1621 25.4618 15.8854 25.3388 15.682 25.1445L15.6779 25.1405C15.4785 24.9462 15.3524 24.6765 15.3524 24.3791V11.5448C15.3524 11.2513 15.4785 10.9816 15.6779 10.7833L15.682 10.7793C15.8854 10.585 16.158 10.466 16.4632 10.466ZM33.61 11.5488H16.4673V24.3711H33.61V11.5488ZM11.674 31.3435V7.94358L1.11084 1.51852V37.7011L11.674 31.3435Z" fill="#01A0C4"/>
</svg>
