<svg width="56" height="57" viewBox="0 0 56 57" fill="none" xmlns="http://www.w3.org/2000/svg">
    <path fillRule="evenodd" clipRule="evenodd"
          d="M37.2716 4.43842L24.477 12.1191L39.4894 14.169L51.8338 6.43267L37.2716 4.43842ZM40.2346 27.2297C48.4173 27.2297 55.0497 33.8943 55.0497 42.1153C55.0497 50.3352 48.4173 56.9998 40.2346 56.9998C32.052 56.9998 25.4196 50.3352 25.4196 42.1153C25.4196 33.8943 32.052 27.2297 40.2346 27.2297ZM36.42 40.0152L38.6278 42.0942L43.6989 36.918C44.1934 36.4133 44.5061 36.0067 45.1171 36.6384L47.0999 38.6805C47.7519 39.3278 47.7187 39.7077 47.1043 40.3094L39.76 47.5522C38.467 48.8289 38.691 48.9058 37.3781 47.5979L33.081 43.3063C32.8071 43.0077 32.8382 42.708 33.1376 42.4083L35.4386 40.0108C35.7879 39.6431 36.064 39.6743 36.42 40.0152ZM22.7138 14.0521L22.7038 29.8401L16.9985 25.9363L11.292 29.175L11.9685 12.5848L2.15018 11.2445V46.1139L21.9941 48.6919C22.2736 49.4818 22.6007 50.2494 22.9755 50.9892L1.03129 48.1382C0.45798 48.1148 0 47.6391 0 47.0586V10.0112C0.0299406 9.55998 0.209584 9.24357 0.634297 9.02966L20.2354 0.0945127C20.4106 0.0142969 20.6257 -0.0180122 20.8176 0.00872639L54.992 4.69244C55.5564 4.75817 55.9434 5.22387 55.9434 5.80543V5.80766L56 31.2951C55.3657 30.3526 54.2734 29.0346 53.7899 28.2012V7.74955L40.9476 16.0976V22.761C40.2307 22.7344 39.5129 22.7478 38.7975 22.8012V16.248L22.7138 14.0521ZM13.674 10.6451L26.1126 2.90875L20.8364 2.18569L4.90582 9.44745L13.674 10.6451Z"
          fill="#01A0C4"/>
</svg>
