<svg width="87" height="88" viewBox="0 0 87 88" fill="none" xmlns="http://www.w3.org/2000/svg">
<path d="M64.0012 24.707C65.5354 25.801 66.9776 27.0177 68.3135 28.345C72.0421 32.0645 74.8818 36.5733 76.6218 41.5364C74.7532 40.6202 72.703 40.1309 70.6206 40.1041H70.1606C68.716 37.1519 66.7874 34.4604 64.454 32.1406C63.9366 31.625 63.3975 31.1236 62.8441 30.651C63.6761 29.5842 64.1264 28.2709 64.1234 26.9199C64.1253 26.1686 64.0845 25.4178 64.0012 24.6712V24.707ZM53.4218 44.0429C54.2404 44.1895 54.9936 44.5847 55.5779 45.1744C56.3456 45.932 56.7799 46.9624 56.7854 48.039V57.3489C56.7816 58.4342 56.3472 59.4739 55.5771 60.2413C54.8069 61.0087 53.7635 61.4415 52.6743 61.4453H52.4659L52.8181 66.4153C52.8255 66.577 52.7716 66.7355 52.6672 66.8593C52.5589 66.9829 52.4062 67.059 52.242 67.071C52.0779 67.0831 51.9156 67.0302 51.7903 66.9238L45.3938 61.2877H36.9993L41.1462 57.0839H49.9361C50.8606 57.0802 51.7461 56.712 52.3992 56.0599C53.0523 55.4078 53.4199 54.5247 53.4218 53.6035C53.4218 50.6601 53.6518 46.8502 53.4218 44.0071V44.0429ZM35.2672 49.0846C35.0651 49.0846 34.8713 49.0046 34.7285 48.8622C34.5856 48.7199 34.5053 48.5268 34.5053 48.3255C34.5053 48.1241 34.5856 47.9311 34.7285 47.7887C34.8713 47.6463 35.0651 47.5664 35.2672 47.5664H42.6699C42.8719 47.5664 43.0657 47.6463 43.2086 47.7887C43.3515 47.9311 43.4317 48.1241 43.4317 48.3255C43.4317 48.5268 43.3515 48.7199 43.2086 48.8622C43.0657 49.0046 42.8719 49.0846 42.6699 49.0846H35.2672ZM35.2672 44.9524C35.0651 44.9524 34.8713 44.8724 34.7285 44.7301C34.5856 44.5877 34.5053 44.3946 34.5053 44.1933C34.5053 43.992 34.5856 43.7989 34.7285 43.6565C34.8713 43.5142 35.0651 43.4342 35.2672 43.4342H45.7603C45.9624 43.4342 46.1562 43.5142 46.299 43.6565C46.4419 43.7989 46.5222 43.992 46.5222 44.1933C46.5222 44.3946 46.4419 44.5877 46.299 44.7301C46.1562 44.8724 45.9624 44.9524 45.7603 44.9524H35.2672ZM33.1973 37.7122H47.7009C48.2593 37.7126 48.8122 37.8228 49.3277 38.0367C49.8433 38.2505 50.3113 38.5637 50.7051 38.9583C51.5035 39.7516 51.9533 40.8283 51.9556 41.9518V51.2617C51.9543 51.8169 51.8432 52.3664 51.6286 52.8789C51.414 53.3913 51.1002 53.8565 50.7051 54.248C50.3107 54.6413 49.8424 54.9532 49.3269 55.1658C48.8114 55.3784 48.2588 55.4875 47.7009 55.4869H40.4706L34.1172 60.9296C34.0036 61.0272 33.8636 61.0892 33.7148 61.1079C33.566 61.1265 33.415 61.101 33.2806 61.0344C33.1463 60.9679 33.0347 60.8633 32.9598 60.7339C32.8849 60.6044 32.85 60.4558 32.8595 60.3066L33.1973 55.4869C32.6395 55.4925 32.0861 55.3877 31.5692 55.1787C31.0523 54.9698 30.5821 54.6607 30.1859 54.2695C29.7907 53.878 29.4769 53.4128 29.2623 52.9003C29.0477 52.3879 28.9366 51.8384 28.9353 51.2832V41.9733C28.9336 41.4133 29.0433 40.8586 29.2579 40.3411C29.4725 39.8236 29.7879 39.3536 30.1859 38.9583C30.5788 38.5646 31.0457 38.2518 31.5599 38.038C32.0742 37.8242 32.6257 37.7135 33.1829 37.7122H33.1973ZM47.7009 39.2376H33.1973C32.8395 39.2372 32.4852 39.3072 32.1546 39.4436C31.8241 39.58 31.5238 39.7802 31.2711 40.0325C30.7623 40.5429 30.4757 41.2324 30.4734 41.9518V51.2617C30.4734 51.9815 30.7603 52.6719 31.2712 53.1809C31.782 53.6899 32.4748 53.9759 33.1973 53.9759H34.0597C34.1605 53.9813 34.2591 54.0067 34.35 54.0504C34.4408 54.0942 34.522 54.1555 34.5889 54.2308C34.6557 54.3061 34.7069 54.3938 34.7395 54.489C34.772 54.5842 34.7852 54.6848 34.7784 54.7851L34.4981 58.6165L39.6441 54.2122C39.7876 54.0705 39.9812 53.9908 40.1831 53.9902H47.7009C48.0586 53.9902 48.4128 53.92 48.7433 53.7836C49.0737 53.6472 49.374 53.4473 49.627 53.1952C49.8799 52.9432 50.0805 52.644 50.2174 52.3147C50.3543 51.9854 50.4248 51.6324 50.4248 51.276V41.9661C50.4248 41.6097 50.3543 41.2567 50.2174 40.9274C50.0805 40.5981 49.8799 40.2989 49.627 40.0469C49.374 39.7948 49.0737 39.5949 48.7433 39.4585C48.4128 39.3221 48.0586 39.2519 47.7009 39.2519V39.2376ZM68.3854 62.7558C68.245 62.6131 68.1131 62.4625 67.9901 62.3046C67.7026 61.9036 67.4295 61.4882 67.1636 61.0729L65.8483 58.9889C65.4154 58.4376 65.1509 57.7738 65.0865 57.0768C65.0792 56.7867 65.1606 56.5013 65.3197 56.2583C65.4789 56.0154 65.7083 55.8263 65.9777 55.7161C65.9346 54.9355 65.8986 54.1406 65.8986 53.3528C65.8986 52.8802 65.8986 52.4147 65.8986 51.9205C65.9474 51.6258 66.0219 51.3358 66.1214 51.054C66.4908 49.8705 67.2871 48.8652 68.3566 48.2324C68.7354 47.9935 69.1406 47.7989 69.5641 47.6523C70.3331 47.3658 69.9594 46.22 70.8002 46.22C72.7695 46.1627 75.9965 47.8385 77.2686 49.1992C78.0686 50.0867 78.5248 51.2293 78.5551 52.4218L78.433 55.8593C78.6075 55.9008 78.7671 55.9897 78.894 56.1161C79.0208 56.2426 79.11 56.4016 79.1517 56.5755C79.2321 57.2008 79.1033 57.8352 78.7851 58.3802C78.7851 58.3802 78.7851 58.3802 78.7851 58.4375L77.2471 60.8723C76.9139 61.4396 76.5517 61.9893 76.1618 62.5195C75.6947 63.1425 75.3066 63.0351 75.709 63.6295C78.5839 67.554 87 65.0618 87 72.8893H57.2238C57.2238 65.069 65.6471 67.554 68.5147 63.6295C68.8454 63.1425 68.7591 63.1783 68.3854 62.7845V62.7558ZM11.1688 62.7558C11.0271 62.6164 10.8973 62.4655 10.7807 62.3046C10.486 61.9036 10.2129 61.4882 9.94696 61.0729L8.62453 58.9602C8.2038 58.4059 7.95408 57.7415 7.90582 57.0481C7.89226 56.7568 7.97104 56.4687 8.13099 56.2244C8.29094 55.9802 8.52396 55.7924 8.79703 55.6875C8.74672 54.9069 8.71797 54.1119 8.71797 53.3242C8.71797 52.8515 8.71797 52.386 8.71797 51.8919C8.74317 51.5992 8.79367 51.3093 8.8689 51.0253C9.23828 49.8418 10.0346 48.8366 11.1041 48.2037C11.4854 47.9648 11.8929 47.7701 12.3187 47.6236C13.0805 47.3372 12.714 46.1914 13.5549 46.1914C15.517 46.1341 18.7512 47.8099 20.0233 49.1705C20.8266 50.056 21.2832 51.1999 21.3098 52.3932L21.2092 55.8593C21.3837 55.9008 21.5433 55.9897 21.6702 56.1161C21.797 56.2426 21.8863 56.4016 21.9279 56.5755C21.9917 57.1841 21.8636 57.7974 21.5613 58.33C21.5613 58.33 21.5613 58.33 21.5613 58.3873L20.0233 60.8723C19.6901 61.4396 19.3279 61.9893 18.938 62.5195C18.4709 63.1425 18.09 63.0351 18.4853 63.6295C21.3601 67.554 29.7834 65.0618 29.7834 72.8893H0C0 65.069 8.43048 67.554 11.291 63.6295C11.6216 63.1425 11.5353 63.1783 11.1688 62.7845V62.7558ZM39.8525 17.5885C39.0691 16.8723 38.0845 16.2994 37.948 14.8528H37.8689C37.6726 14.8486 37.4802 14.797 37.3083 14.7024C37.0338 14.5341 36.8199 14.2834 36.6974 13.9863C36.4171 13.3417 36.1943 11.6373 36.9058 11.1217L36.7693 11.0358V10.8496C36.7693 10.5058 36.7693 10.0904 36.7261 9.66076C36.7261 8.05659 36.6686 6.123 35.3822 5.73628L34.8287 5.5644L35.2169 5.13472C36.1683 3.93088 37.2506 2.83568 38.4439 1.86909C39.5035 0.962164 40.7772 0.338671 42.1452 0.0572417C42.7886 -0.0460327 43.4468 -0.00925122 44.0746 0.165057C44.7024 0.339366 45.2848 0.647067 45.7819 1.06701C46.1411 1.3593 46.4687 1.68812 46.7594 2.04813C47.3303 2.11473 47.8809 2.29947 48.376 2.59052C48.8711 2.88157 49.2996 3.2725 49.6342 3.73823C50.063 4.31372 50.3844 4.96141 50.5829 5.65034C50.7876 6.34725 50.8727 7.07363 50.8344 7.79878C50.7969 9.11703 50.2572 10.3716 49.3252 11.3079C49.4901 11.3084 49.6526 11.3477 49.7995 11.4225C50.0234 11.5772 50.1866 11.8045 50.2613 12.0656C50.336 12.3268 50.3176 12.6056 50.2092 12.8548C50.0726 13.2916 49.8929 13.8001 49.7276 14.2226C49.5192 14.7955 49.2245 14.9029 48.6496 14.8457C48.6496 16.2779 47.5931 16.8222 46.7162 17.6386C48.8724 21.6347 57.9784 18.9993 57.9784 26.9485H28.5113C28.5113 18.9993 37.4161 21.7421 39.8166 17.5885H39.8525ZM67.0486 78.9479C60.5986 84.7728 52.2049 87.999 43.5 87.999C34.7951 87.999 26.4014 84.7728 19.9514 78.9479H29.2444C33.6153 81.3349 38.5193 82.5862 43.5036 82.5862C48.4879 82.5862 53.3919 81.3349 57.7628 78.9479H67.0486ZM10.7807 40.498C13.1664 34.3547 17.2415 29.0059 22.5388 25.0651C22.4813 25.6571 22.4525 26.2944 22.4525 26.9772C22.4444 28.4211 22.9542 29.8205 23.89 30.9231C23.4228 31.3313 22.9628 31.761 22.5244 32.1979C20.0874 34.6239 18.0931 37.4544 16.631 40.5625C15.5811 40.2648 14.4955 40.1106 13.404 40.1041C12.5114 40.1095 11.6239 40.2372 10.7663 40.4837L10.7807 40.498Z" fill="#01A0C4"/>
</svg>
