<svg width="53" height="56" viewBox="0 0 53 56" fill="none" xmlns="http://www.w3.org/2000/svg">
<path d="M5.57895 56C4.04474 56 2.7309 55.4512 1.63743 54.3536C0.543952 53.256 -0.00185491 51.9381 4.73595e-06 50.4V5.6C4.73595e-06 4.06 0.546741 2.7412 1.64021 1.6436C2.73369 0.546004 4.0466 -0.00186191 5.57895 4.75382e-06H27.8947L44.6316 16.8V25.48L22.3158 47.81V56H5.57895ZM27.8947 56V50.05L42.2605 35.56L48.2579 41.44L33.8224 56H27.8947ZM50.2803 39.48L44.3526 33.53L46.3053 31.57C46.8632 31.01 47.5373 30.73 48.3276 30.73C49.118 30.73 49.7689 31.01 50.2803 31.57L52.2329 33.6C52.7443 34.16 53 34.8255 53 35.5964C53 36.3673 52.7443 37.0085 52.2329 37.52L50.2803 39.48ZM25.1053 19.6H39.0526L25.1053 5.6V19.6Z" fill="#01A0C4"/>
</svg>
