<svg width="76" height="74" viewBox="0 0 76 74" fill="none" xmlns="http://www.w3.org/2000/svg">
<path fillRule="evenodd" clipRule="evenodd" d="M53.9557 30.6819L65.2458 11.2528L45.2869 0L25.616 33.8513C27.0291 33.282 28.5179 32.9045 30.0379 32.7496L44.4453 7.95512C46.3097 9.00961 48.3848 8.43738 49.3096 6.82099L57.1664 11.328C56.2713 12.8928 56.8472 14.956 58.4682 15.8689L50.7969 29.07C51.8968 29.5109 52.9463 30.064 53.9557 30.6819ZM9.75692 56.1991C10.6639 56.1991 11.4001 56.9306 11.4001 57.8317C11.4001 58.7343 10.6639 59.4643 9.75692 59.4643C8.84996 59.4643 8.11371 58.7343 8.11371 57.8317C8.11371 56.9306 8.84996 56.1991 9.75692 56.1991ZM57.5835 41.9539C57.582 41.6442 57.6013 41.3507 57.6399 41.0734L54.4084 38.929C53.9438 38.6208 53.4347 38.2669 52.924 37.9114C51.0864 36.6328 49.1938 35.3158 47.1543 34.7834C46.0529 34.4958 44.7822 34.304 43.4804 34.279C42.3464 34.2583 41.1886 34.3645 40.1005 34.6433C39.4504 34.8114 38.8225 35.0429 38.2406 35.3482C37.7225 35.6196 37.2401 35.9529 36.8111 36.3511L34.641 38.9158C34.5757 39.0426 34.4821 39.1517 34.3693 39.2358L28.3858 46.3105C28.4749 46.7632 28.6545 47.1423 28.8994 47.4446C29.1844 47.7956 29.5644 48.0566 30.0023 48.2189C30.4654 48.3914 30.9998 48.4578 31.5654 48.4121C32.4679 48.3369 33.4297 47.9711 34.2981 47.2883L35.9606 45.9226C36.3807 45.5775 36.731 45.2604 37.0783 44.9433C37.8457 44.2472 38.6132 43.5511 39.4177 43.0747C41.2821 41.9686 43.1375 41.9332 44.9737 44.992L54.3817 61.852H57.5805L57.5835 41.9539ZM58.3405 39.255C58.486 39.0544 58.6522 38.8701 58.8393 38.7034C59.6601 37.9689 60.8357 37.6106 62.3439 37.6091V37.6047L70.5228 37.6076C72.2343 37.6002 73.6266 37.9114 74.59 38.6488C75.6632 39.4688 76.1664 40.7195 75.9511 42.5114L74.1432 61.0762C74.0111 62.7339 73.5702 64.0332 72.785 64.9314C71.9493 65.8856 70.7855 66.3561 69.2611 66.2926L61.906 66.2941C60.8758 66.3472 60.003 66.0699 59.2727 65.4889C58.7368 65.0656 58.2945 64.4845 57.9397 63.7604H55.3955C55.7384 64.7559 55.7206 65.6998 55.4475 66.5389C55.1654 67.4017 54.6177 68.1376 53.9186 68.6877C53.2343 69.2275 52.3986 69.5962 51.5257 69.7393C50.6722 69.8779 49.7801 69.8012 48.9504 69.4591C47.9855 70.4619 46.9687 71.0931 45.9089 71.3837C44.8446 71.6742 43.7669 71.6152 42.6759 71.2347C41.6413 72.3748 40.4968 73.09 39.2366 73.3614C37.9526 73.6372 36.587 73.4469 35.1412 72.77C34.69 73.1195 34.2179 73.3968 33.7266 73.5988C33.0275 73.8864 32.2942 74.0192 31.5297 73.997C29.6965 73.9425 28.4615 73.4042 27.4789 72.5311C26.5422 71.6993 25.9114 70.6301 25.2004 69.4001L21.1465 62.3741H18.0026C17.826 63.2545 17.5217 64.0023 17.0704 64.6025L17.0259 64.6645C16.2243 65.688 15.0472 66.2322 13.4204 66.1997L6.56106 66.2012C5.20137 66.4195 4.03613 66.0891 3.12473 65.0391C2.31723 64.1085 1.76504 62.6041 1.53051 60.389L1.52012 60.3079L0.102541 42.8624C-0.178006 40.979 0.132228 39.6473 0.893713 38.7373C1.66262 37.82 2.82043 37.4056 4.2484 37.3392L4.36715 37.3318H13.0507V37.3363C14.4238 37.32 15.6024 37.5457 16.493 38.1179V38.1209C17.2129 38.5839 17.7295 39.2358 17.9952 40.1222H23.9045C25.3889 39.1267 26.7797 38.345 28.3175 37.8687C29.8272 37.4011 31.4466 37.2374 33.3807 37.4675L35.4025 35.0768L35.4782 34.9972C36.0422 34.4648 36.6731 34.0268 37.3514 33.6714C38.0639 33.2982 38.8299 33.0151 39.6225 32.8115C40.8843 32.4871 42.2143 32.3632 43.5101 32.3868C44.9782 32.4133 46.4047 32.6287 47.6367 32.9502L47.6396 32.9516C49.9983 33.5652 52.0364 34.9839 54.015 36.3614C54.4871 36.6903 54.9576 37.0177 55.4682 37.3554L58.3405 39.255ZM16.2763 41.3404C16.2434 41.2289 16.2314 41.1125 16.2407 40.9967C16.1353 40.3832 15.8651 39.9688 15.4643 39.7107C14.9047 39.3553 14.075 39.2166 13.0611 39.2284H13.0507V39.2329L4.33004 39.2314C3.43199 39.2742 2.74324 39.488 2.35879 39.9481C1.94465 40.4407 1.79621 41.2917 1.99809 42.6102L2.00699 42.6972L3.42606 60.1899C3.61903 61.998 4.0109 63.1602 4.56606 63.8002C5.00543 64.3046 5.60512 64.4491 6.32504 64.3194C6.38293 64.309 6.44082 64.3031 6.49723 64.3031L13.3654 64.3002L13.4679 64.3061C14.4297 64.3223 15.0962 64.0362 15.5163 63.4994L15.5504 63.4581C16.015 62.8313 16.2436 61.8638 16.2793 60.625L16.2763 41.3404ZM18.1896 60.4745H21.6987C22.0698 60.4745 22.3919 60.6839 22.5507 60.9907L26.8599 68.4577C27.4907 69.5505 28.0474 70.4973 28.7495 71.1212C29.4056 71.7037 30.265 72.065 31.5832 72.1034C32.0775 72.1181 32.551 72.0326 33.0022 71.8483C33.2783 71.7347 33.55 71.5813 33.8157 71.3896L31.0087 66.1702C30.9497 66.0606 30.9131 65.9406 30.9009 65.8169C30.8887 65.6932 30.9011 65.5683 30.9375 65.4494C30.9739 65.3305 31.0335 65.2199 31.113 65.124C31.1925 65.028 31.2902 64.9485 31.4006 64.8901C31.8652 64.6438 32.4426 64.8178 32.689 65.2795L35.7409 70.953C36.8779 71.5267 37.9066 71.7052 38.8329 71.5061C39.6789 71.3232 40.4775 70.8188 41.2286 70.0033L36.8304 63.1454C36.695 62.9336 36.6497 62.6769 36.7045 62.4319C36.7593 62.1869 36.9098 61.9736 37.1229 61.8387C37.2283 61.7721 37.3459 61.7267 37.469 61.7052C37.5921 61.6837 37.7183 61.6866 37.8403 61.7136C37.9623 61.7405 38.0777 61.7911 38.18 61.8625C38.2823 61.9338 38.3695 62.0245 38.4365 62.1293L43.0722 69.3573C43.8842 69.6847 44.665 69.7599 45.4086 69.5579C46.1182 69.3632 46.8292 68.9104 47.5402 68.1804L43.3409 60.327C43.2218 60.1047 43.1965 59.8444 43.2706 59.6035C43.3446 59.3626 43.5119 59.1608 43.7357 59.0425C43.9598 58.9248 44.2217 58.9001 44.4641 58.9739C44.7064 59.0477 44.9094 59.214 45.0286 59.4363L49.3719 67.561C49.9375 67.8854 50.5906 67.971 51.22 67.8677C51.7692 67.7793 52.2976 67.5448 52.7311 67.2041C53.1482 66.8737 53.4732 66.4475 53.6321 65.9593C53.8057 65.424 53.7879 64.7942 53.4881 64.1099C53.4257 63.9683 53.4005 63.8179 53.4109 63.6719C53.2785 63.6151 53.1608 63.5292 53.0667 63.4206C52.9726 63.312 52.9045 63.1836 52.8676 63.0451L43.335 45.9595C42.2751 44.1985 41.3192 44.1528 40.3959 44.6985C39.7413 45.0864 39.0525 45.7132 38.3623 46.3385C37.9452 46.7175 37.5251 47.0995 37.1778 47.3841L35.4856 48.769C34.307 49.6996 32.98 50.1995 31.7212 50.3042C30.8855 50.3721 30.0691 50.2659 29.3373 49.9931C28.5803 49.7114 27.9168 49.2527 27.4136 48.6318C26.8703 47.9622 26.5155 47.1142 26.4309 46.1055C26.4072 45.8149 26.517 45.5465 26.7085 45.3548L31.8607 39.2638C30.7653 39.2491 29.796 39.398 28.8861 39.6797C27.4982 40.1074 26.2038 40.8581 24.7862 41.8182C24.6174 41.9501 24.4088 42.0218 24.1939 42.0217H18.1896V60.4745ZM65.9836 56.1991C66.8905 56.1991 67.6268 56.9306 67.6268 57.8317C67.6268 58.7343 66.8905 59.4643 65.9836 59.4643C65.0751 59.4643 64.3389 58.7343 64.3389 57.8317C64.3389 56.9306 65.0751 56.1991 65.9836 56.1991ZM44.334 19.4321C41.4468 19.32 39.0154 21.5529 38.9026 24.4214C38.8492 25.7516 39.3049 26.9831 40.0946 27.9329C42.6329 27.5288 45.4146 27.6615 47.9232 28.2028C48.7993 27.2893 49.3093 26.0893 49.3571 24.8284C49.4699 21.9599 47.2211 19.5442 44.334 19.4321ZM21.6631 35.422L39.005 5.5792L36.1832 3.98936L18.7493 33.9914C19.4039 34.3748 20.0496 34.8836 20.5706 35.422H21.6631Z" fill="#01A0C4"/>
</svg>
