<svg width="449" height="373" viewBox="0 0 449 373" fill="none" xmlns="http://www.w3.org/2000/svg">
        <path d="M366.998 169.772C380.997 169.772 386.499 171.274 398.497 174.267C404.496 175.266 405.994 173.763 406.995 170.771C407.995 167.773 403.495 165.277 399.491 164.277C391.994 161.782 384.491 158.286 381.494 156.287L250.5 45.4384L251.004 0L449 169.772L449 203.725L250.5 373V328.058L381.494 217.203C384.497 215.21 392.498 211.212 399.498 209.213C403.495 208.213 407.996 205.717 407.001 202.725C406.504 199.23 403.998 197.727 398.503 199.23C386.506 202.222 381.004 203.725 367.508 203.228L-49 203.725L-49 169.772L366.991 169.772H366.998Z" fill="#000"></path>
      </svg>